<?xml version="1.0" encoding="UTF-8" standalone="no"?>
<svg
   xmlns:dc="http://purl.org/dc/elements/1.1/"
   xmlns:cc="http://creativecommons.org/ns#"
   xmlns:rdf="http://www.w3.org/1999/02/22-rdf-syntax-ns#"
   xmlns:svg="http://www.w3.org/2000/svg"
   xmlns="http://www.w3.org/2000/svg"
   xmlns:sodipodi="http://sodipodi.sourceforge.net/DTD/sodipodi-0.dtd"
   xmlns:inkscape="http://www.inkscape.org/namespaces/inkscape"
   width="24"
   height="24"
   viewBox="0 0 24 24"
   fill="none"
   stroke="currentColor"
   stroke-width="2"
   stroke-linecap="round"
   stroke-linejoin="round"
   class="feather feather-file-text"
   version="1.1"
   id="svg12"
   sodipodi:docname="file-table.svg"
   inkscape:version="0.92.3 (2405546, 2018-03-11)">
  <metadata
     id="metadata18">
    <rdf:RDF>
      <cc:Work
         rdf:about="">
        <dc:format>image/svg+xml</dc:format>
        <dc:type
           rdf:resource="http://purl.org/dc/dcmitype/StillImage" />
        <dc:title></dc:title>
      </cc:Work>
    </rdf:RDF>
  </metadata>
  <defs
     id="defs16" />
  <sodipodi:namedview
     pagecolor="#ffffff"
     bordercolor="#666666"
     borderopacity="1"
     objecttolerance="10"
     gridtolerance="10"
     guidetolerance="10"
     inkscape:pageopacity="0"
     inkscape:pageshadow="2"
     inkscape:window-width="1920"
     inkscape:window-height="1031"
     id="namedview14"
     showgrid="false"
     inkscape:zoom="11.313708"
     inkscape:cx="-15.936484"
     inkscape:cy="-1.5616449"
     inkscape:window-x="0"
     inkscape:window-y="25"
     inkscape:window-maximized="1"
     inkscape:current-layer="svg12"
     showguides="true"
     inkscape:guide-bbox="true">
    <sodipodi:guide
       position="5.0625,3.1875"
       orientation="1,0"
       id="guide4806"
       inkscape:locked="false" />
    <sodipodi:guide
       position="11.15625,3.71875"
       orientation="1,0"
       id="guide4808"
       inkscape:locked="false" />
  </sodipodi:namedview>
  <path
     style="color:#000000;font-style:normal;font-variant:normal;font-weight:normal;font-stretch:normal;font-size:medium;line-height:normal;font-family:sans-serif;font-variant-ligatures:normal;font-variant-position:normal;font-variant-caps:normal;font-variant-numeric:normal;font-variant-alternates:normal;font-feature-settings:normal;text-indent:0;text-align:start;text-decoration:none;text-decoration-line:none;text-decoration-style:solid;text-decoration-color:#000000;letter-spacing:normal;word-spacing:normal;text-transform:none;writing-mode:lr-tb;direction:ltr;text-orientation:mixed;dominant-baseline:auto;baseline-shift:baseline;text-anchor:start;white-space:normal;shape-padding:0;clip-rule:nonzero;display:inline;overflow:visible;visibility:visible;opacity:1;isolation:auto;mix-blend-mode:normal;color-interpolation:sRGB;color-interpolation-filters:linearRGB;solid-color:#000000;solid-opacity:1;vector-effect:none;fill:#666666;fill-opacity:1;fill-rule:nonzero;stroke:none;stroke-width:2;stroke-linecap:butt;stroke-linejoin:miter;stroke-miterlimit:4;stroke-dasharray:none;stroke-dashoffset:0;stroke-opacity:1;color-rendering:auto;image-rendering:auto;shape-rendering:auto;text-rendering:auto;enable-background:accumulate"
     d="M 6 1 C 4.3549904 1 3 2.35499 3 4 L 3 20 C 3 21.64501 4.3549904 23 6 23 L 14 23 L 18 23 C 19.64501 23 21 21.64501 21 20 L 21 16 L 21 8 L 21 4 C 21 2.35499 19.64501 1 18 1 L 14 1 L 6 1 z M 6 3 L 11.177734 3 L 11.177734 6.15625 L 5 6.15625 L 5 4 C 5 3.8589676 5.0264945 3.7256623 5.0761719 3.6054688 C 5.225204 3.2448879 5.576903 3 6 3 z M 13.177734 3 L 13.585938 3 L 18 3 C 18.564129 3 19 3.435871 19 4 L 19 6.15625 L 13.177734 6.15625 L 13.177734 3 z M 5 8.15625 L 11.177734 8.15625 L 11.177734 21 L 6 21 C 5.4358706 21 5 20.564129 5 20 L 5 8.15625 z M 13.177734 8.15625 L 19 8.15625 L 19 8.4140625 L 19 15.585938 L 19 20 C 19 20.564129 18.564129 21 18 21 L 13.585938 21 L 13.177734 21 L 13.177734 8.15625 z M 6.9707031 9.9199219 A 1.1081347 1.0178492 0 1 0 6.9707031 11.955078 L 8.078125 11.955078 L 9.1855469 11.955078 A 1.1081347 1.0178492 0 1 0 9.1855469 9.9199219 L 8.078125 9.9199219 L 6.9707031 9.9199219 z M 14.970703 9.9199219 A 1.1081347 1.0178492 0 1 0 14.970703 11.955078 L 16.078125 11.955078 L 17.185547 11.955078 A 1.1081347 1.0178492 0 1 0 17.185547 9.9199219 L 16.078125 9.9199219 L 14.970703 9.9199219 z M 6.9707031 13.544922 A 1.1081347 1.0178492 0 1 0 6.9707031 15.580078 L 8.078125 15.580078 L 9.1855469 15.580078 A 1.1081347 1.0178492 0 1 0 9.1855469 13.544922 L 8.078125 13.544922 L 6.9707031 13.544922 z M 14.970703 13.544922 A 1.1081347 1.0178492 0 1 0 14.970703 15.580078 L 16.078125 15.580078 L 17.185547 15.580078 A 1.1081347 1.0178492 0 1 0 17.185547 13.544922 L 16.078125 13.544922 L 14.970703 13.544922 z M 6.9707031 17.169922 A 1.1081347 1.0178492 0 1 0 6.9707031 19.205078 L 8.078125 19.205078 L 9.1855469 19.205078 A 1.1081347 1.0178492 0 1 0 9.1855469 17.169922 L 8.078125 17.169922 L 6.9707031 17.169922 z M 14.970703 17.169922 A 1.1081347 1.0178492 0 1 0 14.970703 19.205078 L 16.078125 19.205078 L 17.185547 19.205078 A 1.1081347 1.0178492 0 1 0 17.185547 17.169922 L 16.078125 17.169922 L 14.970703 17.169922 z "
     id="path2" />
</svg>
